<?xml version="1.0" encoding="UTF-8" standalone="no"?>
<!-- Created with Inkscape (http://www.inkscape.org/) -->

<svg
   xmlns:dc="http://purl.org/dc/elements/1.1/"
   xmlns:cc="http://creativecommons.org/ns#"
   xmlns:rdf="http://www.w3.org/1999/02/22-rdf-syntax-ns#"
   xmlns:svg="http://www.w3.org/2000/svg"
   xmlns="http://www.w3.org/2000/svg"
   version="1.1"
   width="30.578754"
   height="47.408749"
   id="svg21712">
  <defs
     id="defs21714">
    <clipPath
       id="clipPath8486">
      <path
         d="m 233.008,285.823 25.903,0 0,-37.847 -25.903,0 0,37.847 z"
         id="path8488" />
    </clipPath>
    <clipPath
       id="clipPath8470">
      <path
         d="m 233.008,285.823 25.903,0 0,-37.847 -25.903,0 0,37.847 z"
         id="path8472" />
    </clipPath>
  </defs>
  <metadata
     id="metadata21717">
    <rdf:RDF>
      <cc:Work
         rdf:about="">
        <dc:format>image/svg+xml</dc:format>
        <dc:type
           rdf:resource="http://purl.org/dc/dcmitype/StillImage" />
        <dc:title></dc:title>
      </cc:Work>
    </rdf:RDF>
  </metadata>
  <g
     transform="translate(-264.71062,-302.89352)"
     id="layer1">
    <g
       transform="matrix(1.25,0,0,-1.25,-26.549375,660.27227)"
       id="g8466">
      <g
         clip-path="url(#clipPath8470)"
         id="g8468">
        <path
           d="m 233.008,247.976 21.955,0 0,26.982 -21.955,0 0,-26.982 z"
           id="path8474"
           style="fill:#00aeef;fill-opacity:1;fill-rule:nonzero;stroke:none" />
      </g>
    </g>
    <g
       transform="matrix(1.25,0,0,-1.25,267.89188,303.13602)"
       id="g8476">
      <path
         d="m 0,0 4.624,0 0,-1.268 -2.869,0 0,-1.113 1.837,0 0,-1.267 -1.837,0 0,-1.179 2.958,0 0,-1.316 -4.713,0"
         id="path8478"
         style="fill:#004fa3;fill-opacity:1;fill-rule:nonzero;stroke:none" />
    </g>
    <path
       d="m 275.15563,310.81477 2.19412,0 0,-7.679 -2.19412,0 0,7.679 z"
       id="path8480"
       style="fill:#004fa3;fill-opacity:1;fill-rule:nonzero;stroke:none" />
    <g
       transform="matrix(1.25,0,0,-1.25,-26.549375,660.27227)"
       id="g8482">
      <g
         clip-path="url(#clipPath8486)"
         id="g8484">
        <g
           transform="translate(248.118,284.011)"
           id="g8490">
          <path
             d="m 0,0 c -0.341,0.39 -0.748,0.545 -1.284,0.545 -0.439,0 -0.739,-0.155 -0.739,-0.439 0,-0.992 3.372,-0.114 3.372,-2.617 0,-1.016 -0.813,-2.048 -2.608,-2.048 -1.098,0 -2.064,0.261 -2.715,1.195 l 1.057,0.821 c 0.382,-0.472 0.918,-0.748 1.544,-0.748 0.691,0 0.967,0.268 0.967,0.536 0,0.935 -3.324,0.22 -3.324,2.544 0,1.202 1,2.023 2.471,2.023 0.861,0 1.738,-0.26 2.283,-0.967"
             id="path8492"
             style="fill:#004fa3;fill-opacity:1;fill-rule:nonzero;stroke:none" />
        </g>
      </g>
    </g>
    <g
       transform="matrix(1.25,0,0,-1.25,287.77563,304.65977)"
       id="g8494">
      <path
         d="m 0,0 -1.69,0 0,1.219 5.135,0 0,-1.219 -1.69,0 0,-4.924 -1.755,0"
         id="path8496"
         style="fill:#004fa3;fill-opacity:1;fill-rule:nonzero;stroke:none" />
    </g>
    <path
       d="m 293.01563,310.81477 2.19412,0 0,-7.679 -2.19412,0 0,7.679 z"
       id="path8498"
       style="fill:#004fa3;fill-opacity:1;fill-rule:nonzero;stroke:none" />
    <g
       transform="matrix(1.25,0,0,-1.25,295.28813,322.79977)"
       id="g8500">
      <path
         d="M 0,0 C -4.135,0 -7.487,3.352 -7.487,7.487 L 0,7.487"
         id="path8502"
         style="fill:#004fa3;fill-opacity:1;fill-rule:nonzero;stroke:none" />
    </g>
    <g
       transform="matrix(1.25,0,0,-1.25,282.93563,325.79352)"
       id="g8504">
      <path
         d="m 0,0 c -2.529,2.529 -4.093,6.023 -4.093,9.882 l 4.991,0 C 0.898,7.404 1.901,5.16 3.524,3.535 L 2.46,2.471 C 4.357,0.567 6.982,-0.61 9.882,-0.61 l 0,-3.484 C 6.023,-4.094 2.529,-2.529 0,0"
         id="path8506"
         style="fill:#004fa3;fill-opacity:1;fill-rule:nonzero;stroke:none" />
    </g>
    <g
       transform="matrix(1.25,0,0,-1.25,295.28813,334.66727)"
       id="g8508">
      <path
         d="m 0,0 c -4.697,0 -8.928,1.896 -12.001,4.98 l 1.054,1.066 c -2.796,2.799 -4.526,6.665 -4.526,10.935 l -4.991,0 C -20.464,5.679 -11.302,-3.483 0,-3.483"
         id="path8510"
         style="fill:#004fa3;fill-opacity:1;fill-rule:nonzero;stroke:none" />
    </g>
    <g
       transform="matrix(1.25,0,0,-1.25,268.01313,316.57102)"
       id="g8512">
      <path
         d="m 0,0 c 1.243,-10.95 10.538,-19.457 21.82,-19.457 l 0.001,-3.448 -0.042,0 c -7.006,0 -13.351,2.83 -17.954,7.41 l 1.042,1.071 c -2.092,2.095 -3.798,4.575 -5.002,7.325 l 0,7.11"
         id="path8514"
         style="fill:#004fa3;fill-opacity:1;fill-rule:nonzero;stroke:none" />
    </g>
    <g
       transform="matrix(1.25,0,0,-1.25,273.89063,347.17352)"
       id="g8516">
      <path
         d="m 0,0 c -1.733,1.102 -3.352,2.366 -4.837,3.771 l 0,-3.769"
         id="path8518"
         style="fill:#004fa3;fill-opacity:1;fill-rule:nonzero;stroke:none" />
    </g>
    <g
       transform="matrix(1.25,0,0,-1.25,277.65813,347.17852)"
       id="g8520">
      <path
         d="m 0,0 c -2.751,1.441 -5.255,3.29 -7.431,5.466 l 1.043,1.065 c -0.51,0.511 -1.001,1.04 -1.471,1.588 L -7.85,11.34 C -3.421,5.134 3.574,0.884 11.587,0.142 l 0,-0.136"
         id="path8522"
         style="fill:#004fa3;fill-opacity:1;fill-rule:nonzero;stroke:none" />
    </g>
  </g>
</svg>
